<svg id="Layer_1" data-name="Layer 1" xmlns="http://www.w3.org/2000/svg" viewBox="0 0 13962.22 3893.07"><defs><style>.cls-1{fill:#14500f;}.cls-2{fill:#a2baa0;}.cls-3{fill:#41713d;}.cls-4{fill:#e6ede6;}.cls-5{fill:#3cb5b5;}.cls-6{fill:#3db5b5;}.cls-7{fill:#3fb6b6;}.cls-8{fill:#3db4b4;}.cls-9{fill:#3ab1ae;}.cls-10{fill:#144f0f;}.cls-11{fill:#185213;}.cls-12{fill:#41b7b7;}.cls-13{fill:#42b7b7;}.cls-14{fill:#44b8b8;}.cls-15{fill:#48b9b9;}.cls-16{fill:#393939;}</style></defs><title>logo</title><path class="cls-1" d="M2156.72,7957h-66.79c-2.38-1-4.73-2.68-7.12-2.73-12.54-.31-25.08-.19-37.62-.22l-38-.14c-34.3-3-68.64-5.57-102.9-9a1779,1779,0,0,1-271.67-49.33q-512.7-134.15-888.88-507.68Q353.58,6998.55,225,6461.52c-21.58-90.3-36.57-181.7-43.81-274.26-3.26-41.72-4.86-83.56-7.22-125.35.1-13.72.27-27.43.27-41.15,0-18.48-.13-37-.21-55.45a1982.48,1982.48,0,0,1,16.56-212.18,1908.86,1908.86,0,0,1,59-282.64c159.51-550.4,554.53-1003.64,1078.09-1236.8q319.52-142.29,668.76-164c5.75-.35,11.44-1.83,17.15-2.79l37.94-.43c3.12.29,6.25.81,9.37.83q61.51.28,123,.41c2.59,0,5.19-.49,7.79-.75,29.61,1.95,59.23,3.72,88.82,5.9a1771.94,1771.94,0,0,1,232.63,33.17c233.61,48.79,451.54,136.45,652.18,266q451.11,291.2,693,770.78c81,160.81,137.59,330.09,170.85,507,15.87,84.4,27.43,169.42,29.81,255.45q.08,30,.14,60.08l.06,93.37-.18,60c-1.72,73.8-11.15,146.83-23.46,219.45a1922.6,1922.6,0,0,1-141,465.27c-285.84,639.41-910.88,1105.75-1667.85,1150.37l-31.93-.08C2182,7954,2169,7950.75,2156.72,7957ZM791.88,7200.19l1.34,4.1q10.56,11.78,21.12,23.55a1793.81,1793.81,0,0,0,170.17,166.83c132.25,113.36,278.59,203.73,439.78,269.92,190.26,78.13,388.93,117.35,593.79,126.24a2145.14,2145.14,0,0,0,265.28-4.76c66.08-5.31,131.67-13.57,196.78-25.87a1628.25,1628.25,0,0,0,520.1-193.89c188-109.35,348.69-251,490.52-415,3-3.45,5.46-7.37,9.06-12.29-18.82-5.19-37.31-.4-54.87-6.58-.27-4.61-.72-8.76-.72-12.91,0-17.49.78-35,0-52.46-1.38-31.65-7.69-60.59-30.56-86-31-34.51-42.52-77.39-39.81-123.87.95-16.39,1.32-32.82,1.95-49.23.46-12.1-2.77-23.17-10.16-32.72a167.85,167.85,0,0,0-15.77-17.81c-14.77-14.3-26-30.64-30.88-50.86-1.27-20.65,3.73-39.91,13-58.16,5.05-9.9,10.53-19.57,15.64-29.44,7.06-13.62,14.13-27.24,20.86-41,10.5-21.48,10.08-42.15-2.17-63.5-30-52.33-58.58-105.5-88.62-157.82-11.29-19.65-16.44-39.84-14.33-62.23,2.9-30.57,5.53-61.17,8.2-91.76.76-8.77,1.26-17.56,2-27.33-22.28-2.08-42.8-4.09-63.33-5.87-31.51-2.74-60.22-11.05-81.47-36.92-4-4.89-11.08-8.44-17.39-10.1-22.15-5.85-44.2-3.63-65.48,4.4a47,47,0,0,0-15.81,10.2c-14.9,14.61-32.58,21.22-53.2,20.62-13.23-.38-26.48-.65-39.7-1.33-25.58-1.31-50.79-.06-75.23,8.64-5,1.77-10.24,2.66-15.4,3.81-27.54,6.11-51.57-.07-70.85-21.17q-17.68-19.32-34.36-39.56c-14.15-17.22-28.95-33.64-46.06-48.11-25.42-21.49-45.17-47.49-58.26-78.32-1.82-4.28-4.13-8.37-6.21-12.54l-.23.28c2.69-2.53,5.47-5,8-7.6,62.38-63.48,121-130.32,176.71-199.69,98.55-122.66,187.54-252.13,273.4-383.83a66.76,66.76,0,0,0,3.51-7q2.78-1.68,5.56-3.35c2.1,0,4.22.19,6.31,0,26.86-2.34,53.7-4.84,80.56-7.08,24.25-2,48.53-3.65,72.78-5.68,7.71-.65,15.36-2,23.76-3.16.34,5.54.83,9.71.8,13.87-.12,19,.31,38.11-.79,57.1-1.27,22,3.61,30.78,24.75,38.13,11,3.82,22.24,6.77,33.27,10.4q61.77,20.31,123.44,40.84c12.66,4.21,25.37,5.86,39.7,2.91v-51.73c16.64-3.13,32.14-6.53,47.8-8.85,19.43-2.87,38,.53,54.93,10.81,8.59,5.21,17.09,10.59,25.36,16.28,10.89,7.49,21.39,15.56,32.3,23,9.19,6.28,18.72,12.05,30.57,11.33,39.06.41,78.13,1.05,117.2,1,5.21,0,10.42-3.6,14.22-5,4.46-10.81.73-18.66-1.9-26.65q-14.12-42.86-28.17-85.74a94.63,94.63,0,0,0-4.56-11.8c-5.44-11.1-14-18.62-26.47-20.46-7.25-1.07-14.83-2.29-22-1.31-25.71,3.52-49.4-.83-71-15.5-24.47-22.55-36.19-50.11-34.16-83.68.52-8.68-.38-17.9-5.3-25.92-28.1,4.52-45,20.69-52.63,47.1-1.47,5.08-2.56,10.27-3.88,15.39-3.18,12.29-6,24.71-9.78,36.8-1.94,6.14-3.69,13.05-9.16,16.34-11.38-11.6-22.09-22.54-32.85-33.45-4.46-4.53-9.14-8.84-13.5-13.47-14.12-15-21.63-32.45-19.61-53.41,2.65-27.55-8.53-48.34-31.25-63.36-12.45-8.24-23.64-17.64-32.84-29.66-10.68-13.95-25.21-22-42.72-25.29-18.6-3.45-36.71-1-55.8,1.92-2.29,25.15,4.36,46.88,22.55,63.61,10.4,9.55,22.82,17.09,35,24.52,11.72,7.17,24.39,12.77,36.34,19.58,8.64,4.92,17.2,10.23,23.17,18.87-5.64,18.61-11.44,36.53-9.89,56.21.94,12-6.65,21.29-18,25.69a179.66,179.66,0,0,1-28.93,8.27c-25.41,5.15-46.43-11.38-49.31-39.66,5.83,0,11.53-.12,17.21,0,6.35.18,12.71,1,19,.84,15.61-.45,22.76-7.15,26.16-24-26.86-18.62-54.62-36.27-80.54-56.29s-49.85-42.31-75.64-64.45c-5.67,5.37-11.4,10-16.23,15.51-10.43,11.82-23.07,14.31-37.45,9.68-10.05-3.24-19.9-7.12-29.85-10.72l-9.07,2.84-101.15-135.45c3-.88,4.29-1.51,5.67-1.64,37.83-3.62,65.64-21.9,82.5-56.25,1.4-2.85,2.81-5.71,4.43-8.44,14.66-24.61,35.53-40.83,64.35-44.2a240.92,240.92,0,0,1,45.81-.64c21.56,1.61,42.95,5.57,66.12,3.74-4.14-27.21-8.18-53.74-12.42-81.59l-72.3,26.45c-4.37-10.93-7.77-20.36-11.87-29.47-7.83-17.38-18.43-32-37.91-38.14-5.37-1.69-10.5-5.19-14.82-8.93-13.3-11.46-15.36-26.8-5.06-41.1,4.56-6.33,10.61-11.82,16.74-16.75,18.72-15.07,40.15-25.45,62-35.07,8.67-3.82,17.37-8,25.1-13.4,13-9.05,21.13-21.71,24.27-37.64-2.75-2.6-5-4.85-7.32-6.89-306.61-264.05-661.54-410.06-1065.64-434.77-123.59-7.56-246.75-1.07-369.29,17.44a1781.41,1781.41,0,0,0-351.66,89.93c-145,53.49-280.34,124.87-404.47,217.18-4.5,3.34-8.79,6.95-15.78,12.51,9.86,0,16.5.49,23.06-.08,35.65-3.14,69.59,2.42,101.84,18.43a136.3,136.3,0,0,0,43.76,13.68c17.89,2.25,30.79,10.82,34.57,29.77.18.9,1.32,1.6,2.64,3.12,11.55,4.21,24.38,1.88,36.92,2.44,12.16.54,24.38.42,36.56,0s24.91,1.85,37.17-1.65c-5.59-26.37-14.17-33.29-39.59-33.11-1.59,0-3.18.26-4.76.18q-29.14-1.38-58.34-2.82c-1.47-15,8.54-28.28-.53-43.87-6.52-1.76-14.42-5.15-22.54-5.84-15.8-1.35-31.72-1.12-47.59-1.69-3.21-.11-6.39-.86-12.8-1.77,18.16-17,33.55-32.31,49.92-46.48,14.62-12.66,32-20.45,51.09-24.3,22.51-4.52,45.2-4.43,68-4.78,17.75-.27,30.27,6.76,40.33,20.64a197.06,197.06,0,0,0,20.26,24.43c31.22,30.93,71.25,33.51,106.45,7.11,6.75-5.06,12.72-11.18,19.11-16.75,5.15-4.5,10-9.66,17.71-9.64,9.7,3.4,16.55,10.35,23.82,17.52-19.57,31.62-44.4,54.15-80.15,62.53a132.37,132.37,0,0,1-44.22,2.44c-5.45-.56-11.32-3-16.86.68.61,9.34,1.17,18.32,1.78,27.31a46.93,46.93,0,0,0,.56,4.73c3.14,18.24,8.33,24.32,26.94,25,23.24.84,46.57-.24,69.84-1.06,5-.17,9.92-2.77,14.87-4.24,6.71-22.51,23-28.33,43.49-27.34,5.81.28,11.66.41,17.48.15,23.21-1.05,33.33-12.56,31.69-35.94-.21-3.07-1.14-6.09-1.8-9.46l-34.36-10c.7-3.85,1.21-6.88,1.8-9.9,6.13-31.36,9.51-35.08,41.52-36.16,31.23-1,62.52-.37,93.79-.45,5.19,0,10.39,0,16.05,0,.94,4.14,1.59,7,2.23,9.85-11.94,10.67-23.59,20.63-34.73,31.12-12.37,11.65-16.73,26.46-16.11,43.22.32,8.82,4.16,14.95,11.19,19.8,14.34,9.9,40.73,14.75,58.78,10.57,0-9.53.24-19.05-.1-28.55-.18-5.26-1.22-10.5-2.06-15.72-4-24.84,2.34-38.76,25.59-48.24a629.26,629.26,0,0,1,71.92-24.75,187.18,187.18,0,0,1,67.76-5.52c25.7,2.53,49.46,10.49,72.65,21.52,18.49,8.78,37.8,15.84,56.74,23.66l9.44,5.47c-.07,14.77.27,29.56-.3,44.31-1.24,32-7,62.91-20.39,92.34-8.19,17.93-20.78,30.68-39.06,37.17-14.4,5.1-29.34,8.69-44,12.95l-19.28-3.48-75.51-18.34,129.89-71.29c-5.16-6.28-8.91-11.35-13.18-15.95-20.67-22.31-45.72-31.5-76-25.31-18.13,3.71-36.38,6.84-54.54,10.46-13.18,2.62-25.11,7.78-35.2,17.15a215.31,215.31,0,0,1-21.15,16.77c-18.19,13.08-38.46,19.75-61,19-2.83-.1-5.66.29-10.22.55l24.87,41.65-36.22,10c-13.17,27.08-20.77,30.69-50.77,25.07l-12.52-45.33c-4.68.56-8.36.69-11.9,1.45-25,5.38-49.47,12.79-71.69,25.15-48.51,27-96.25,55.34-142.84,82.3-8,32.78,6.84,68.54,34.16,86.19a1.12,1.12,0,0,0-.08,1.92c-16.68,9.13-33.43,18.16-50,27.42-126,70.18-236.45,160.25-337.52,262.44-85.46,86.41-163.23,179.46-235.86,276.75-53.22,71.28-104.59,143.93-156.79,216a1.48,1.48,0,0,0-2.06,0c-14.23-21.69-29.34-42.86-42.46-65.19-20.94-35.63-34-74-35.19-115.83-.12-4.07-1.27-8.11-2.08-13H609.64c-3.52,19-2.29,42.28,2.91,65.09,8.62,37.83,25.78,71.88,48.59,102.7,16,21.67,20.09,46,23.47,71.7l-11.09,9.13c-13-4-25.66-7.81-38.2-11.88-8.16-2.65-15.79-6.47-21-13.66-21.05-29.28-41.25-59.06-54.74-92.83-13.32-33.36-17-67.57-10.25-102.9a100.53,100.53,0,0,0,1.64-15.78c.82-27.34-10.5-45-35.92-55.86-6.31-2.68-13-4.39-19.51-6.7-12.2-4.35-19-13.19-20.37-25.92-.52-4.69.08-9.51.09-14.27,0-16.41.06-32.83-.05-49.24,0-1.43-1.06-2.85-1.88-4.9l-7.76.71c-1.5,3.2-3,6-4.12,8.88C391.2,5528.18,345.1,5721.73,331.9,5922.52a1652.38,1652.38,0,0,0,14.25,350.39,1630.86,1630.86,0,0,0,102,374.54c81.18,200.85,196.59,380.68,335.8,545.84,2.27,2.7,5.37,4.7,8.09,7Zm2702.93-2301.7c-.39-16.43-.47-16.37-10.45-28.64-12.33-15.16-24.45-30.49-36.8-45.64-6-7.37-12.27-14.53-18.49-21.73-3.12-3.61-6.32-7.27-13-5.14.48,4.42,1.06,9,1.45,13.67.61,7.35,1.68,14.73,1.52,22.08-.69,31.09-15.27,53.08-44,65.41-3.39,1.46-6.78,3.19-10.34,3.93-11.81,2.43-18.28,9.65-20.45,21,7.6,11.56,11.34,14.34,22.53,15.14,16.86,1.19,33.76,2.95,50.62,2.73C3463.14,4940.69,3468.35,4937.73,3494.81,4898.49Zm-2176.29,42.34c-22.78-18.06-59.09-11.06-82.38,12.92,8.12,17,16.43,34.34,25.14,52.52,11.44-2.65,21.77-4.55,31.79-7.51,11.47-3.38,19.26-11.09,21.21-23.2C1316.18,4963.7,1317.22,4951.71,1318.52,4940.83ZM1170,4638.59l-97.6,18.36v35.43c19.87.73,38.8,2.27,57.69,1.93,33.52-.61,45.4-15,41.57-48.34C1171.38,4644,1170.74,4642.07,1170,4638.59Zm-1.23,99-93.94,23.25V4773c10.47,2.63,20.5,7,30.66,7.31a396.88,396.88,0,0,0,55.14-2.29c9.93-1.05,14.29-8.1,13.31-18.25C1173.21,4752.66,1170.7,4745.76,1168.72,4737.58Zm2578,550c-3.74-16.83-31-71.8-39.61-80.5-1.42,1.29-3.7,2.35-4.16,3.94-2.07,7.05-.32,70.69,1.93,78.79ZM605.48,5065.14l-35.14,61.2,2.44,2.12c8.83-7.84,17.93-15.4,26.42-23.6C610.11,5094.32,612,5081.72,605.48,5065.14Z" transform="translate(-168.83 -4063.9)"/><path class="cls-2" d="M174,6061.91l-5.14-.59V5965.9l5.2-.59c.08,18.49.21,37,.21,55.45C174.24,6034.48,174.07,6048.19,174,6061.91Z" transform="translate(-168.83 -4063.9)"/><path class="cls-2" d="M2191.71,4063.9c0,1,0,2.06,0,3.1-2.6.26-5.2.75-7.79.75q-61.53-.14-123-.41c-3.12,0-6.25-.54-9.37-.83a6.57,6.57,0,0,1,.25-2.61Z" transform="translate(-168.83 -4063.9)"/><path class="cls-3" d="M4059.24,6058.74l-.06-93.37a9.51,9.51,0,0,1,2.73.53v92.24A4.8,4.8,0,0,1,4059.24,6058.74Z" transform="translate(-168.83 -4063.9)"/><path class="cls-2" d="M4061.91,5965.9a9.51,9.51,0,0,0-2.73-.53q-.07-30-.14-60.08a4.7,4.7,0,0,0,2.87.18Z" transform="translate(-168.83 -4063.9)"/><path class="cls-2" d="M4059.24,6058.74a4.8,4.8,0,0,0,2.67-.6v60.43l-1.44-.08-1.41.27Z" transform="translate(-168.83 -4063.9)"/><path class="cls-3" d="M2045.19,7954c12.54,0,25.08-.09,37.62.22,2.39.05,4.74,1.77,7.12,2.73H2045.4A3.21,3.21,0,0,0,2045.19,7954Z" transform="translate(-168.83 -4063.9)"/><path class="cls-3" d="M2156.72,7957c12.25-6.22,25.3-2.94,38.05-3.2l.12,3.2Z" transform="translate(-168.83 -4063.9)"/><path class="cls-2" d="M2045.19,7954a3.21,3.21,0,0,1,.21,2.95h-38.17c0-1,0-2.06,0-3.09Z" transform="translate(-168.83 -4063.9)"/><path class="cls-4" d="M2051.76,4063.9a6.57,6.57,0,0,0-.25,2.61l-37.94.43c0-1,0-2,0-3Z" transform="translate(-168.83 -4063.9)"/><path class="cls-2" d="M2194.89,7957l-.12-3.2,31.93.08c0,1,0,2.08,0,3.12Z" transform="translate(-168.83 -4063.9)"/><path class="cls-5" d="M3319,6706.56c4.92,20.22,16.11,36.56,30.88,50.86a167.85,167.85,0,0,1,15.77,17.81c7.39,9.55,10.62,20.62,10.16,32.72-.63,16.41-1,32.84-1.95,49.23-2.71,46.48,8.78,89.36,39.81,123.87,22.87,25.44,29.18,54.38,30.56,86,.76,17.45,0,35,0,52.46,0,4.15.45,8.3.72,12.91,17.56,6.18,36.05,1.39,54.87,6.58-3.6,4.92-6.07,8.84-9.06,12.29-141.83,164-302.51,305.64-490.52,415a1628.25,1628.25,0,0,1-520.1,193.89c-65.11,12.3-130.7,20.56-196.78,25.87a2145.14,2145.14,0,0,1-265.28,4.76c-204.86-8.89-403.53-48.11-593.79-126.24C1263.1,7598.4,1116.76,7508,984.51,7394.67a1793.81,1793.81,0,0,1-170.17-166.83q-10.55-11.79-21.13-23.56c.37-1.28.74-2.56,1.1-3.84l-2.43-.25.12.13c2.48-6.64-2.6-11-5.24-15.77-56.44-102.4-100.61-210-136.48-321.13-49.42-153.09-77.95-309.94-82.88-470.84a1520.37,1520.37,0,0,1,18.72-286.53c23.66-148.39,68.23-290.42,130.9-426.87,1.51-3.3,3.75-6.26,5.66-9.37a1.48,1.48,0,0,1,2.06,0c4.37,6.58,8.77,13.14,13.11,19.73,4.08,6.19,8.58,12.14,12,18.65,6.16,11.59,6.77,24.07-.76,34.8-10.54,15-8.46,29.74-2.57,45.25,13.2,34.74,35.92,61,69.62,76.95,12.38,5.87,25.27,11.29,38.51,14.62,27.7,7,55.76,12.52,83.72,18.42,2.94.62,6.18-.22,8.47-.34l16.43-19.21c8.49,1.29,16.2,2.56,23.93,3.59,8.23,1.1,16.48,2,24.73,2.93v44.5c26.63,6.39,52.64,13.42,79,18.75,32.37,6.56,57.64,22.57,75.82,50.35a288.28,288.28,0,0,0,25.15,32.72c30.65,34.72,68.23,56.87,115.3,59.83,13.11.83,26.39-.75,39.58-1.4,17.18-.84,24.5,3.3,30.24,19.37a201.07,201.07,0,0,1,9.26,33.62c7.52,44.14-7.72,76.26-46.28,99.16a98.62,98.62,0,0,1-14.09,7.32c-20.92,8.2-29.23,24.52-30.91,45.8-1.7,21.63-4.12,43.2-6.14,64.8-1.54,16.34-3.21,32.67-4.34,49-.86,12.42,1,24.82,8.26,35,10.1,14.17,21.6,27.34,32.5,40.94a1.65,1.65,0,0,1,.43,2.05c-10.77,15.64-22.33,30.8-32.19,47-41.71,68.58-66.73,142.79-71.31,223.12-5.31,93.23,17.88,179.45,67.24,258.6,36.22,58.09,82.26,107.52,134.73,151.15,55.61,46.23,116.37,84.72,180,118.83,20.26,10.86,39.17,23.14,52.94,42,4.57,16.26,10.15,32.31,13.48,48.82,5.86,29.05,10.34,58.38,15.41,87.59,5.63,32.33,17.42,61.83,37.36,88.35,31.31,41.62,69.37,75.71,112.84,103.82a69.35,69.35,0,0,0,28.13,9.9c27.43,3.48,54.77.1,81.51-2.9,10.16-12.41,8.09-24.23,2-36.9l-9.9,2.19c-10-6.85-20.4-14.13-31-21.13-15.2-10.07-23-24.06-24.61-42.25-3.32-36.37-14.61-70.29-32.41-102.22-5.11-9.17-8.78-19.29-12-29.34-5.92-18.74-2.79-36.5,7.31-53.34,7.89-13.14,19.41-22.2,31.9-30.37,17-3.81,33.82-9,51-11.08,19.91-2.47,40.18-1.82,60.23-3.31,77.1-5.72,154.25-11,231.24-18,44.77-4.07,89.55-9.56,133.85-17.19,116.05-20,226.55-57.74,332.82-108.14,126.06-59.78,241.72-136,350.71-222.65,94.27-75,182-157.15,265.94-243.41C3308.94,6720.23,3313.73,6713.15,3319,6706.56Z" transform="translate(-168.83 -4063.9)"/><path class="cls-6" d="M3097.83,5367.83l-5.55,3.35c-19.7,2.53-38.07,9.42-55.28,18.81a105.76,105.76,0,0,1-56.41,13.21c-13.2-.56-26.44-1.14-39.55-2.67-22.12-2.6-43.76-1-63.3,9.88-23.95,13.38-47,28.34-71.53,43.27-.48,8.67-1.31,17-1.29,25.28,0,7.39,1.15,14.77,1.53,22.17,1.65,32.06-11.08,57.64-35.58,77.66a125.59,125.59,0,0,1-19.5,13.62c-46.89,25.29-85.92,61.71-129.76,91.3-9.28,6.25-12.73,15.56-10.48,26.37,1.82,8.77,4.6,17.36,7.16,26,3.17,10.67,10.66,16.67,21.27,19.19,6.51,1.55,13,3.24,18.93,4.73,2.43,39.42-.31,45.51-30.59,66.69-1.43,11.35-2.94,24.37-4.71,37.36-3.15,23.23-3.55,46.43.51,69.57,2.1,11.95,4.6,23.83,6.91,35.74l.23-.28c-5.11,3.54-10.54,6.69-15.26,10.68-51.41,43.5-103.31,86.34-160.83,121.76-82.67,50.89-169.79,93.6-255.56,138.78a96.24,96.24,0,0,1-16.2,6.48c-17.14,5.37-26.23,1.11-31.66-16.18a220.51,220.51,0,0,1-7.36-34.1c-8.66-58.69-16.22-117.54-25.68-176.09-5.81-36-13.92-71.71-21.93-107.33-2.16-9.62-7-18.88-11.84-27.58-6.18-11-16.36-16.52-29.15-15.73-6.82.43-13.83,1.13-20.31,3.14a277.43,277.43,0,0,0-32.7,12.21,1391.55,1391.55,0,0,0-214.11,121.24l-5.45-2.1c-3.33-3.95-6.24-8.55-12.26-8.5-2.53,4.93-4.92,9.57-6.66,13-21.84,12.38-43.43,20.55-67.49,20.51-4.2,0-8.38,1.31-12.6,1.61a80.56,80.56,0,0,1-12.62,0c-18.91-1.64-32.28-12.38-42.91-27.08-5.35-7.42-11.07-14.42-19.55-18.18-22.26-9.86-44.48-20-68.73-24.14-26.7-4.53-49.35,3.56-67.22,23.67-6.62,7.45-12.16,16.06-17.1,24.77-20.23,35.61-51.17,49.72-90.77,44.16-22-3.09-43.52-9-65.19-13.89-18.82-4.27-29.09-16.42-31-35.54q-3.09-31.61-5.83-63.25c-1.78-21-3.29-42.1-5-64.42l-98.42-19.62c2.22-7.38,3.35-13.54,5.89-19.05,4-8.64,9.26-16.68,13.39-25.26,4.57-9.51,9.55-19,12.41-29.11,4.74-16.75.66-32.15-10.74-46.48-4.13,2.47-7.78,4.44-11.22,6.74-31.74,21.17-63.71,42-95,63.75-17.42,12.1-36.12,18-56.9,15.06-15.66-2.23-31-6.63-46.55-9.7-9.8-1.94-15.8-7.95-20-16.46a123.31,123.31,0,0,1-13.07-59.94c.33-8.81,1.63-18.21,5.14-26.18,16-36.35,32.74-72.38,49.76-108.27,2.58-5.45,7.07-11.39,12.24-14,30.71-15.5,61.44-31.11,93-44.62,21-9,43.93-11.29,67.06-9.86,22.18,1.37,44.4,2.22,66.61,2.69,17.48.38,35,.07,52.46-.4,12.62-.35,22.59,4.07,29.87,13.63,0,8.07-.15,15.46,0,22.84.33,13.51,5.9,24.51,16.34,33.08,10.93,9,41,21.29,57.37,23.09,0-9.54-.27-19,.06-28.45.66-19,.93-38.12,2.72-57.06,1.65-17.43,9-32.05,23.8-43.08,34-25.34,66.93-52.05,101.13-77.08,20.4-14.93,34.46-34.1,45-56.45,2.72-5.74,4.76-11.87,8-17.3,7-11.78,13.4-24.2,22.08-34.66,46-55.35,101.77-98.67,165.38-132a116.24,116.24,0,0,0,36.74-29.81c5.69-7,11.07-14.23,17.07-20.94,10.23-11.43,20.22-23.19,31.43-33.61,14.94-13.88,22.59-14,39.68-3.43,5.72,3.54,11.33,7.27,17.18,11,10.32-9.88,19.5-18.93,27.15-31.53-9-2.28-16.63-4.11-24.17-6.13-10.49-2.81-19.89-7.67-26.34-16.65a22.86,22.86,0,0,1-4.44-11.47c-.52-11.35,10.81-25.58,22.28-27.74,22.67-4.26,43.25-2.54,57.08,19.94,6.65,10.79,17.59,14.68,30.25,13.47,7.38-.7,14.77-1.68,22.16-1.72,19-.11,34-6.93,43.28-24.24.44-.81,1.65-1.21,3.76-2.68l18.8,1.81c5.17,14.52,5.3,26.84-4.41,38.35-4.41,5.24-8,11.22-11.65,17-3.54,5.59-5.09,11.62-2.47,18,12.89,12.24,91.44,38.19,117.94,38.84,1-2.74,2.36-5.6,3.23-8.58,7.51-25.72.26-40.58-24.82-49.82-19.41-7.15-32.73-22.51-51.46-34.55,6.94-3.84,11.5-6.24,15.95-8.83,11.43-6.66,23.12-12.94,34.06-20.34,4.56-3.08,10-8.26,10.66-13.07,2.38-18.34,1.62-36.74-5.27-53.06a54.36,54.36,0,0,0-5.55-3.42c-40.65-17.26-57.65-49.25-57.36-92,.06-10.06.56-20.14.3-30.19-.13-4.93,1.54-10.68-4.53-15.15-38.63,19.13-78.37,36.23-122.41,47.42.4-6.94.5-12.61,1.09-18.22,1.6-15.26,4.13-30.46,4.92-45.75s-6.12-23.77-20.78-27.67c-4.59-1.22-9.4-1.57-14.08-2.43-6-1.08-11.89-2.28-17.83-3.43,4.64-4.19,9.33-5.88,14.12-7.17,16.36-4.39,32.81-8.46,49.11-13.09,4.38-1.25,8.32-4,12.46-6.14l19.28,3.48,69.58,18.25c10.58-4.9,9.88-13.4,12.39-20,9.37-24.82,25.13-40,60-38.92,5.79.17,11.54,1.36,17.33,1.77,10.47.74,19-3.24,23.62-12.66,5.73-11.62,10.4-23.75,15.86-36.42l-51.71-16.76c1.46-6.39,2.72-11.4,3.75-16.46,5-24.73-2.41-42.22-24.11-55-7.21-4.25-15.28-7-23-10.49l-9.44-5.47c2.46-49.7,4.58-99.42,7.57-149.09,1.07-17.91,3-36,6.77-53.47,5.1-23.51,17.73-30.1,41.12-24a82.45,82.45,0,0,1,12.07,3.89c13.61,5.87,27.35,11.49,40.6,18.09q106,52.74,207.13,114.33c126.44,77.42,244.38,165.92,351,269.15,61.38,59.42,117.68,123.35,170.15,190.7-9.53.1-19.08-.07-28.6.36-10.14.46-20.49,1.75-28.39,8.65-14.46,12.62-27.19,26.88-34.64,44.93-5.62,13.59-6.24,27.54-1,43.08,5.87,0,11.61.67,17.13-.11,24.54-3.46,46.81-13,67.71-26,14.88-9.28,26.73-20.85,30.33-38.89l20.37,25.29c.53,1.37,1.06,2.75,1.6,4.12l.42.68-.5.62c-10.53,2.28-16.71,9.35-18.13,19.42-1.83,12.91-1.69,26,2.76,39.31,19.68,2.82,38.81,5.12,58.22,2.44l4.8.93,7.54,19.8c-19.33,8.59-25.5,13.06-28.24,26.38-3.8,18.53-5.68,37.44-8.48,56.91l35.15,13.87c-2.8,16.45-4.43,32-9.72,47.1-5-1-8.68-1.41-12.2-2.45-20.06-6-40.53-7.54-61.34-6.42-9,.49-18.07-.25-27,.67-16.84,1.72-33.61,4.2-50.39,6.43-13.41,1.78-21.67,9.9-27.3,21.7-10.34,21.67-14.37,44.37-10.69,68.05,2.27,14.63,5.64,29.12,9.15,43.52,3.8,15.59,13.76,26.5,29,31.15a152.61,152.61,0,0,0,34.18,6.47c31.77,2.14,63.48.23,95.23-2.5,15.66-1.34,27.19-7.45,36.48-19.32,7.51-9.6,14.71-19.46,22.6-28.73,24.06-28.24,48.38-56.26,72.65-84.31,1-1.12,2.48-1.76,6.38-4.42-4.39,16.13-7.46,30-11.93,43.36C3121,5301.86,3109.27,5334.8,3097.83,5367.83ZM1919.88,5179c7.24.91,13.45,2.06,19.71,2.39,8,.41,15.84-.53,22.58-5.68,18.19-13.86,32.46-31.44,47.51-48.05-1.37-3-2.2-4.91-3.3-7.35-12.25-.31-24.24-.77-36.3,4.6-6.94,14.92-19.53,20.74-35.79,20.62-10-.07-17.79,5.13-25.71,12.12Zm-85.27,4.55c2.43,3.06,5.13,6.47,7.93,10,11.2-4.08,22.9-3.94,30.43-13.78.92-12-6.32-20.74-10.7-30.83h-11.89C1845.26,5160.22,1840.28,5171.16,1834.61,5183.58Z" transform="translate(-168.83 -4063.9)"/><path class="cls-7" d="M1505,4885.36c56.92-27.11,115.63-49.83,175.19-70.32,30.5-10.49,61.42-19.79,92.22-29.41,5-1.54,10.25-1.91,15.39-2.83l-.22-.28c1,22.62,2.4,45.23,3,67.86,1,36.78-8.21,49.14-43.7,59.4-10.67,3.08-21.43,5.87-32.2,8.58-15.46,3.89-26.29,13.26-32.73,27.65-3.46,7.72-5.92,15.9-9.62,23.48-4.4,9-8.67,18.3-14.76,26.1-10.3,13.21-24.33,15.7-42.49,8.7-.25-30.46-.5-61.48-.76-93.28-16.71-2.71-31.72-5.94-46.91-7.43-21.8-2.14-42.94-6.05-62.53-16.3A1.12,1.12,0,0,1,1505,4885.36Z" transform="translate(-168.83 -4063.9)"/><path class="cls-8" d="M3693.38,5516c-3.7-50.42-11.67-100.25-20.8-149.92-.94-5.13-1.24-10.37-1.83-15.57,21.58,14.66,45.27,19,71,15.49,7.14-1,14.72.24,22,1.31,12.48,1.84,21,9.36,26.47,20.46a94.63,94.63,0,0,1,4.56,11.8q14.14,42.86,28.17,85.74c2.63,8,6.36,15.84,1.9,26.65-3.8,1.41-9,5-14.22,5C3771.51,5517.09,3732.44,5516.45,3693.38,5516Z" transform="translate(-168.83 -4063.9)"/><path class="cls-9" d="M3746.76,5287.54l-41.84,2.23c-2.25-8.1-4-71.74-1.93-78.79.46-1.59,2.74-2.65,4.16-3.94C3715.77,5215.74,3743,5270.71,3746.76,5287.54Z" transform="translate(-168.83 -4063.9)"/><path class="cls-4" d="M605.48,5065.14c6.48,16.58,4.63,29.18-6.28,39.72-8.49,8.2-17.59,15.76-26.42,23.6l-2.44-2.12Z" transform="translate(-168.83 -4063.9)"/><path class="cls-10" d="M1325.33,6485c53.05-82.19,105-165.13,168.11-240.28q18.87-22.47,39.16-43.73a671.69,671.69,0,0,1,99.28-86.18c46.67-32.91,92.52-67,138.68-100.61,4.25-3.1,8.16-6.65,12.24-10l5.45,2.09c3.61,3.09,7.07,6.38,10.86,9.25,17.12,13,31.86,27.85,40.61,48,2.3,5.3,5.77,10.12,9,15,26.64,40.91,64.62,57.23,112,48.34,21.16-4,34.69,3.08,45.93,19.46,21.6,31.48,34,66.24,32.89,104.35-.72,25.42,9.53,39.92,32.23,50.31,48.94,22.4,100.11,34.16,153.52,36.55,21.67,1,43.44-.2,65.17-.37,5.29,0,10.59-.23,15.87,0,14.59.8,24.75,8.34,31.21,21.19,3.57,7.09,6.64,14.47,10.64,21.3,15.24,26,36.89,43.27,67.31,48.35,5.14.85,10.15,2.53,13.31,3.34,8.25,7,7.9,14.54,7.36,22a104.92,104.92,0,0,1-17,50.69c-7,10.61-14.82,20.63-22.5,30.76-6.71,8.87-13.82,17.44-20.59,26.28-18.12,23.68-28.84,50-31.42,80.1-3.57,41.69-9.18,83.21-12.68,124.91-2,23.55-7.94,44.33-25.4,61.44-19.62,19.23-42.19,32.18-69.51,35.11-14.12,1.52-28.57,1.18-42.79.33-33.34-2-39.4,1-56.94,29.18-13.88,22.29-16.92,45-6.1,69.53,4.21,9.58,6.69,20.13,8.57,30.48,4.52,24.85,1.43,47.41-14.64,69-39.5,53.15-77.24,107.6-115.53,161.65-9.81,13.85-22.09,23.58-38.4,29.24-40.5,14.05-80.67,29-121,43.59-11.37,4.09-20.9,10.12-25.58,22.79,5.27,11.08,15.12,16.81,26,21.22,8.8,3.55,17.7,6.87,26.55,10.3-12.48,8.17-24,17.23-31.89,30.37-10.1,16.84-13.23,34.6-7.31,53.34,3.18,10.05,6.85,20.17,12,29.34,17.8,31.93,29.09,65.85,32.41,102.22,1.66,18.19,9.41,32.18,24.61,42.25,10.57,7,21,14.28,31,21.13l9.9-2.19c6.06,12.67,8.13,24.49-2,36.9-26.74,3-54.08,6.38-81.51,2.9a69.35,69.35,0,0,1-28.13-9.9c-43.47-28.11-81.53-62.2-112.84-103.82-19.94-26.52-31.73-56-37.36-88.35-5.07-29.21-9.55-58.54-15.41-87.59-3.33-16.51-8.91-32.56-13.48-48.82,7.61-22.82,5.57-42.58-12.74-61-32.41-32.65-43.77-72.95-35.69-118.18,3-16.6,8.18-32.79,12.13-49.23,3.2-13.35,3.32-26.25-6.66-36.76-22.22-8.81-24.9-12.76-25.17-36.83-.08-6.88,0-13.76,0-20.65.11-57.18.37-114.36.29-171.53,0-22.76-.61-45.52-1.31-68.27-.27-9.08-1.79-18.07-9.82-24.12-24.51-18.47-48.73-37.35-73.7-55.18-15.55-11.09-32.85-19.61-51.66-23.59-13.12-2.78-22-10.09-28.1-21.19-6.58-12.05-12.92-24.3-18.31-36.91a275.77,275.77,0,0,0-39-65.19c-14-17.3-27.78-34.71-41.67-52.08A1.65,1.65,0,0,0,1325.33,6485Z" transform="translate(-168.83 -4063.9)"/><path class="cls-11" d="M2945.39,4891.52c-13.86-26.83-2.36-54.53,26.86-62.14,13.11-3.42,26.95-4,41.31-6.05,3,12.27,5,23.12,8.33,33.56,5.94,18.62,11.45,37.52,19.35,55.32,13.11,29.56,34.75,51.61,64.33,65.43,2.36,1.11,4.59,2.49,7.52,4.08-13.7,29.39-36.64,44.76-67.82,48.7-4.72.6-9.51.7-14.27,1l-4.81-.93-42.85-61.17.5-.62-.42-.68,4.72-3.56,19.1-6.34c5.33-14.22.94-25-10.08-32.47-14.78-10.07-30.35-19-45.58-28.42l-3-2.62-.51-.44C2947.16,4893.31,2946.27,4892.42,2945.39,4891.52Z" transform="translate(-168.83 -4063.9)"/><path class="cls-3" d="M2961.43,4935.44c-10.7-7.07-17-17.62-22.56-28.72l3,.9C2959.3,4913.07,2961.87,4916.72,2961.43,4935.44Z" transform="translate(-168.83 -4063.9)"/><path class="cls-12" d="M1483.25,5122.45l-142.41-7.14c-2.26-17.7,3.28-30.54,18-37.65,18.06-8.71,37-15.51,57.17-17.77a67.39,67.39,0,0,1,35.56,5.72c14.9,6.69,24.83,17.58,27.71,34.1C1480.48,5106.39,1481.63,5113.07,1483.25,5122.45Z" transform="translate(-168.83 -4063.9)"/><path class="cls-13" d="M1427.7,5140.33c-5.14,12.35-55.21,83.13-67.52,95.92-3.6-.71-7.81-1.08-11.71-2.38-14.12-4.74-20.21-14.25-18.09-29.26,7.19-51,39.41-68.92,78.69-66.56C1415.17,5138.41,1421.22,5139.51,1427.7,5140.33Z" transform="translate(-168.83 -4063.9)"/><path class="cls-13" d="M1440.48,5261.32c-2.39-28,28.92-57.48,73.07-50.1,3.88,10.22,2.7,20.76,0,31-2.92,11.08-10.84,17.74-21.76,21.05C1477.77,5267.5,1458.54,5266.88,1440.48,5261.32Z" transform="translate(-168.83 -4063.9)"/><path class="cls-14" d="M1613.61,5224.91c-14.88,4.42-29.63,5.14-44.1,1.67-21.87-5.23-29-24.55-17.71-49.07,11.85,1.8,24.43,2.87,36.58,5.75C1610.21,5188.42,1616.76,5199.29,1613.61,5224.91Z" transform="translate(-168.83 -4063.9)"/><path class="cls-15" d="M1473.73,5186.3V5140c11.29-3.83,35.36-4.41,53.27-1.43C1536.87,5177.94,1506.23,5193.16,1473.73,5186.3Z" transform="translate(-168.83 -4063.9)"/><path class="cls-7" d="M1787.83,4782.8l.77-1-1,.68Z" transform="translate(-168.83 -4063.9)"/><path class="cls-16" d="M4771.05,5233.05H5792.32v309H5139.54v327.28h555.7v309h-555.7v375.51h677.78v309H4771.05Z" transform="translate(-168.83 -4063.9)"/><path class="cls-16" d="M5918.76,6243.05c0-412.49,303.65-650.8,646.43-650.8,152.69,0,270.09,54.41,362.48,133.56L6754,5962.15c-59.42-50.3-109.12-73.23-168.22-73.23-176.78,0-290.3,139.41-290.3,354.13s118.24,353.24,277.94,353.24c81.47,0,159.41-40.29,223.83-91.47l143.92,240.46c-120.63,106.51-274.52,147.69-409,147.69C6185.92,6893,5918.76,6654.65,5918.76,6243.05Z" transform="translate(-168.83 -4063.9)"/><path class="cls-16" d="M6994.11,6243.05c0-412.49,290.41-650.8,604.34-650.8s604.35,238.31,604.35,650.8c0,411.6-290.41,649.92-604.35,649.92S6994.11,6654.65,6994.11,6243.05Zm832,0c0-214.72-75.55-354.13-227.61-354.13s-227.6,139.41-227.6,354.13,75.55,353.24,227.6,353.24S7826.06,6457.76,7826.06,6243.05Z" transform="translate(-168.83 -4063.9)"/><path class="cls-16" d="M8371.84,6035.7c0-522.66,294.09-850.77,729.23-850.77,222.07,0,361.11,104.54,449.13,197.07l-67.51,77c-84.52-92.53-200.56-169.55-380.12-169.55-377.63,0-610.2,287.59-610.2,744.74,0,458.15,220.57,754.25,596.19,754.25,148.55,0,288.6-46,368.13-124.55V6150.73H9063.56v-98h503.15v653.7c-101.53,110-270.58,186.56-487.15,186.56C8655.93,6893,8371.84,6559.36,8371.84,6035.7Z" transform="translate(-168.83 -4063.9)"/><path class="cls-16" d="M9946.81,6432.33V5662.09h110.52v755.73c0,254.59,80.53,375.63,273.59,375.63,143,0,246.58-75,387.13-245.08V5662.09h110.52V6863h-93.52l-12-201.07h-5.5c-118,138-242.08,231.08-407.63,231.08C10061.85,6893,9946.81,6742.42,9946.81,6432.33Z" transform="translate(-168.83 -4063.9)"/><path class="cls-16" d="M11190.16,6564.12c0-266.84,240.57-393.87,774.74-452.89,3.51-184.56-47-382.13-283.09-382.13-162,0-302.1,80-382.62,141l-51-82c85-60,251.57-156.05,446.63-156.05,284.59,0,380.61,206.56,380.61,463.64V6863h-93.51l-12-156.05h-5.5c-122.54,99-268.58,186.06-426.13,186.06C11348.21,6893,11190.16,6789.44,11190.16,6564.12Zm774.74,39.76V6195.25c-493.16,57-661.72,171.55-661.72,363.12,0,172.31,116.54,238.58,254.58,238.58C11695.31,6797,11816.35,6730.43,11964.9,6603.88Z" transform="translate(-168.83 -4063.9)"/><path class="cls-16" d="M12491.54,5662.09h93.52l12,224.07h5.5c81.28-147.55,198.81-254.08,341.61-254.08,43.76,0,79.52,5.5,119,25l-25,100c-40.51-14.5-62.52-20-108.53-20-108,0-236.08,82-327.61,309.1V6863h-110.52Z" transform="translate(-168.83 -4063.9)"/><path class="cls-16" d="M13131.75,6264.77c0-387.62,246.08-632.69,532.66-632.69,144,0,242.08,54.51,362.12,147.54l-6-220.57V5063.9h110.52V6863h-93.52l-12-155.55h-5.5C13921.5,6805.94,13788,6893,13628.4,6893,13327.31,6893,13131.75,6669.9,13131.75,6264.77Zm888.78,332.11V5884.65c-126.54-112.54-232.08-154.55-350.12-154.55-238.58,0-422.64,233.08-422.64,534.17,0,319.61,142,530.68,396.63,530.68C13777,6795,13894.48,6725.42,14020.53,6596.88Z" transform="translate(-168.83 -4063.9)"/></svg>